<mxfile host="app.diagrams.net" modified="2023-06-19T01:45:04.591Z" agent="Mozilla/5.0 (X11; Linux x86_64; rv:109.0) Gecko/20100101 Firefox/114.0" etag="kwS94M4w1Dd6bqzT7mLY" version="21.5.0" type="device">
  <diagram name="Page-1" id="-rh8xruwLAaDXmid51WF">
    <mxGraphModel dx="1430" dy="567" grid="1" gridSize="10" guides="1" tooltips="1" connect="1" arrows="1" fold="1" page="1" pageScale="1" pageWidth="850" pageHeight="1100" math="0" shadow="0">
      <root>
        <mxCell id="0" />
        <mxCell id="1" parent="0" />
        <mxCell id="EKsNd1QYjIjcPVGXbT6W-28" value="&lt;b&gt;PENDING&lt;/b&gt;" style="rounded=1;whiteSpace=wrap;html=1;fillColor=#f5f5f5;fontColor=#333333;strokeColor=#666666;" parent="1" vertex="1">
          <mxGeometry x="160" y="320" width="120" height="40" as="geometry" />
        </mxCell>
        <mxCell id="EKsNd1QYjIjcPVGXbT6W-29" value="&lt;b&gt;GOVERNANCE&lt;/b&gt;" style="rounded=1;whiteSpace=wrap;html=1;fillColor=#f5f5f5;fontColor=#333333;strokeColor=#666666;" parent="1" vertex="1">
          <mxGeometry x="360" y="320" width="120" height="40" as="geometry" />
        </mxCell>
        <mxCell id="EKsNd1QYjIjcPVGXbT6W-30" value="&lt;b&gt;AUDITING&lt;/b&gt;" style="rounded=1;whiteSpace=wrap;html=1;fillColor=#f5f5f5;fontColor=#333333;strokeColor=#666666;" parent="1" vertex="1">
          <mxGeometry x="560" y="320" width="120" height="40" as="geometry" />
        </mxCell>
        <mxCell id="EKsNd1QYjIjcPVGXbT6W-31" value="STATE 1" style="text;html=1;align=center;verticalAlign=middle;whiteSpace=wrap;rounded=0;fontStyle=1;fillColor=#dae8fc;strokeColor=#6c8ebf;" parent="1" vertex="1">
          <mxGeometry x="360" y="250" width="120" height="30" as="geometry" />
        </mxCell>
        <mxCell id="EKsNd1QYjIjcPVGXbT6W-33" value="&lt;b&gt;Initial state&lt;/b&gt;" style="rounded=0;whiteSpace=wrap;html=1;fillColor=#f5f5f5;strokeColor=#666666;fontColor=#333333;" parent="1" vertex="1">
          <mxGeometry x="160" y="390" width="120" height="20" as="geometry" />
        </mxCell>
        <mxCell id="EKsNd1QYjIjcPVGXbT6W-35" value="&lt;b&gt;First state&lt;/b&gt;" style="rounded=0;whiteSpace=wrap;html=1;fillColor=#f5f5f5;fontColor=#333333;strokeColor=#666666;" parent="1" vertex="1">
          <mxGeometry x="360" y="390" width="120" height="20" as="geometry" />
        </mxCell>
        <mxCell id="_lvbW4tNWUmHZUMVMOEu-1" style="edgeStyle=orthogonalEdgeStyle;rounded=0;orthogonalLoop=1;jettySize=auto;html=1;exitX=1;exitY=0.5;exitDx=0;exitDy=0;entryX=0;entryY=0.5;entryDx=0;entryDy=0;" edge="1" parent="1" source="EKsNd1QYjIjcPVGXbT6W-36" target="EKsNd1QYjIjcPVGXbT6W-33">
          <mxGeometry relative="1" as="geometry">
            <Array as="points">
              <mxPoint x="700" y="400" />
              <mxPoint x="700" y="430" />
              <mxPoint x="140" y="430" />
              <mxPoint x="140" y="400" />
            </Array>
          </mxGeometry>
        </mxCell>
        <mxCell id="EKsNd1QYjIjcPVGXbT6W-36" value="&lt;b&gt;Second state&lt;/b&gt;" style="rounded=0;whiteSpace=wrap;html=1;fillColor=#f5f5f5;strokeColor=#666666;fontColor=#333333;" parent="1" vertex="1">
          <mxGeometry x="560" y="390" width="120" height="20" as="geometry" />
        </mxCell>
        <mxCell id="EKsNd1QYjIjcPVGXbT6W-43" value="" style="sketch=0;pointerEvents=1;shadow=0;dashed=0;html=1;strokeColor=none;fillColor=#505050;labelPosition=center;verticalLabelPosition=bottom;verticalAlign=top;outlineConnect=0;align=center;shape=mxgraph.office.concepts.clock;aspect=fixed;" parent="1" vertex="1">
          <mxGeometry x="411.5" y="171.5" width="17" height="17" as="geometry" />
        </mxCell>
        <mxCell id="EKsNd1QYjIjcPVGXbT6W-44" value="" style="endArrow=classic;html=1;strokeWidth=2;rounded=0;endFill=1;dashed=1;" parent="1" edge="1">
          <mxGeometry width="50" height="50" relative="1" as="geometry">
            <mxPoint x="120" y="220" as="sourcePoint" />
            <mxPoint x="720" y="220" as="targetPoint" />
          </mxGeometry>
        </mxCell>
        <mxCell id="EKsNd1QYjIjcPVGXbT6W-46" value="" style="endArrow=none;html=1;rounded=0;dashed=1;" parent="1" edge="1">
          <mxGeometry width="50" height="50" relative="1" as="geometry">
            <mxPoint x="320" y="440" as="sourcePoint" />
            <mxPoint x="320" y="160" as="targetPoint" />
          </mxGeometry>
        </mxCell>
        <mxCell id="EKsNd1QYjIjcPVGXbT6W-47" value="" style="endArrow=none;html=1;rounded=0;dashed=1;" parent="1" edge="1">
          <mxGeometry width="50" height="50" relative="1" as="geometry">
            <mxPoint x="520" y="440" as="sourcePoint" />
            <mxPoint x="520" y="160" as="targetPoint" />
          </mxGeometry>
        </mxCell>
        <mxCell id="EKsNd1QYjIjcPVGXbT6W-50" value="&lt;div style=&quot;&quot;&gt;&lt;b style=&quot;background-color: initial;&quot;&gt;Tx&lt;/b&gt;&lt;/div&gt;&lt;div style=&quot;&quot;&gt;&lt;b style=&quot;background-color: initial;&quot;&gt;trigger&lt;/b&gt;&lt;/div&gt;" style="text;html=1;strokeColor=none;fillColor=none;align=center;verticalAlign=middle;whiteSpace=wrap;rounded=0;" parent="1" vertex="1">
          <mxGeometry x="286" y="450" width="70" height="30" as="geometry" />
        </mxCell>
        <mxCell id="EKsNd1QYjIjcPVGXbT6W-55" value="" style="endArrow=none;html=1;rounded=0;dashed=1;" parent="1" edge="1">
          <mxGeometry width="50" height="50" relative="1" as="geometry">
            <mxPoint x="719.5" y="439" as="sourcePoint" />
            <mxPoint x="719.5" y="159" as="targetPoint" />
          </mxGeometry>
        </mxCell>
        <mxCell id="EKsNd1QYjIjcPVGXbT6W-60" value="&lt;div style=&quot;&quot;&gt;&lt;b&gt;Time trigger&lt;/b&gt;&lt;/div&gt;" style="text;html=1;strokeColor=none;fillColor=none;align=center;verticalAlign=middle;whiteSpace=wrap;rounded=0;" parent="1" vertex="1">
          <mxGeometry x="485" y="449" width="70" height="31" as="geometry" />
        </mxCell>
        <mxCell id="EKsNd1QYjIjcPVGXbT6W-61" value="&lt;div style=&quot;&quot;&gt;&lt;b style=&quot;border-color: var(--border-color);&quot;&gt;Time trigger&lt;/b&gt;&lt;br&gt;&lt;/div&gt;" style="text;html=1;strokeColor=none;fillColor=none;align=center;verticalAlign=middle;whiteSpace=wrap;rounded=0;" parent="1" vertex="1">
          <mxGeometry x="686" y="450" width="70" height="30" as="geometry" />
        </mxCell>
        <mxCell id="EKsNd1QYjIjcPVGXbT6W-63" value="STATE 0" style="text;html=1;align=center;verticalAlign=middle;whiteSpace=wrap;rounded=0;fontStyle=1;fillColor=#dae8fc;strokeColor=#6c8ebf;" parent="1" vertex="1">
          <mxGeometry x="160" y="250" width="120" height="30" as="geometry" />
        </mxCell>
        <mxCell id="EKsNd1QYjIjcPVGXbT6W-64" value="STATE 2" style="text;html=1;align=center;verticalAlign=middle;whiteSpace=wrap;rounded=0;fontStyle=1;fillColor=#dae8fc;strokeColor=#6c8ebf;" parent="1" vertex="1">
          <mxGeometry x="560" y="250" width="120" height="30" as="geometry" />
        </mxCell>
        <mxCell id="_lvbW4tNWUmHZUMVMOEu-3" value="" style="sketch=0;pointerEvents=1;shadow=0;dashed=0;html=1;strokeColor=none;fillColor=#505050;labelPosition=center;verticalLabelPosition=bottom;verticalAlign=top;outlineConnect=0;align=center;shape=mxgraph.office.concepts.clock;aspect=fixed;" vertex="1" parent="1">
          <mxGeometry x="611.5" y="171.5" width="17" height="17" as="geometry" />
        </mxCell>
        <mxCell id="_lvbW4tNWUmHZUMVMOEu-7" value="&lt;div&gt;&lt;b&gt;Blockchain&lt;/b&gt;&lt;/div&gt;&lt;div&gt;&lt;b&gt;Epoch/Slots&lt;/b&gt;&lt;/div&gt;" style="text;html=1;align=left;verticalAlign=middle;resizable=0;points=[];autosize=1;strokeColor=none;fillColor=none;" vertex="1" parent="1">
          <mxGeometry x="120" y="160" width="90" height="40" as="geometry" />
        </mxCell>
      </root>
    </mxGraphModel>
  </diagram>
</mxfile>
